<svg width="752" height="680" viewBox="0 0 752 680" fill="none" xmlns="http://www.w3.org/2000/svg">
<g id="undraw_the_world_is_mine_nb0e 1">
<g id="Earth">
<path id="Vector" d="M538 183.107V184.09C537.974 186.557 537.893 189.013 537.757 191.458C535.314 233.299 514.596 272.742 479.85 301.703C445.103 330.664 398.959 346.951 350.874 347.225C302.789 347.499 256.404 331.739 221.226 303.177C186.048 274.614 164.74 235.411 161.669 193.601C161.413 190.129 161.284 186.631 161.284 183.107C161.217 149.118 173.325 115.957 195.919 88.2491C197.726 86.0163 199.605 83.8245 201.557 81.6737C202.903 80.1777 204.286 78.7153 205.683 77.264C237.48 44.4453 282.773 23.7918 331.847 19.7345C380.921 15.6773 429.865 28.5395 468.18 55.5617C470.448 57.1581 472.677 58.8103 474.855 60.496C476.598 61.8469 478.311 63.2275 479.993 64.6378C513.136 92.2583 533.536 129.489 537.347 169.309C537.782 173.864 538 178.463 538 183.107Z" fill="#4D7EFD"/>
</g>
<g id="Land">
<path id="Vector_2" d="M201.7 79.903C201.792 79.9369 201.878 79.9822 201.955 80.0375C202.964 80.7662 201.7 82.1675 201.853 83.3222C202.032 84.802 204.279 85.1271 205.977 85.2729C207.675 85.4298 209.82 86.6294 209.016 87.9522C204.751 89.2414 200.435 87.9746 196.081 86.506C173.566 114.331 161.501 147.63 161.569 181.762C161.569 185.305 161.696 188.818 161.952 192.3C162.309 192.529 162.7 192.714 163.114 192.85C164.39 193.276 165.872 193.197 167.046 193.803C167.978 194.285 168.604 195.137 169.536 195.585C172.205 196.863 175.907 194.408 178.397 195.933C179.041 196.447 179.65 196.994 180.223 197.569C182.521 199.318 186.301 198.141 188.957 199.453C190.668 200.294 191.549 201.975 192.468 203.5C194.754 207.311 198.456 211.056 203.347 211.358C204.889 211.296 206.434 211.341 207.969 211.493C209.475 211.796 210.957 212.95 210.714 214.284C210.293 216.582 211.582 219.094 211.237 221.392C210.612 225.596 203.832 227.434 203.257 231.638C203.255 232.564 203.196 233.488 203.079 234.407C202.772 235.506 201.827 236.403 201.495 237.501C200.857 239.575 202.555 241.649 204.406 243.04C206.271 244.441 208.492 245.652 209.514 247.602C210.586 249.676 210.063 252.086 210.408 254.34C211.174 259.261 216.013 262.905 220.992 265.259C222.588 265.844 224.005 266.751 225.129 267.905C226.406 269.53 226.279 271.671 226.713 273.611C227.76 278.353 232.305 282.265 232.433 287.097C232.522 290.539 230.352 293.655 229.049 296.895C227.71 300.292 227.311 303.919 227.887 307.478C235.168 312.899 242.906 317.827 251.036 322.22C251.479 321.646 251.803 321.009 251.994 320.336C252.148 319.593 252.042 318.826 251.688 318.138C251.335 317.449 250.751 316.871 250.015 316.48C251.387 316.025 252.636 315.322 253.679 314.417C254.192 313.954 254.531 313.364 254.65 312.726C254.769 312.089 254.662 311.435 254.343 310.852C256.591 311.099 259.259 311.222 260.74 309.709C261.928 308.498 261.851 306.682 261.379 305.146C260.906 303.599 260.115 302.108 260.102 300.505C265.308 300.727 270.527 300.574 275.705 300.045C274.956 297.828 273.252 295.954 270.955 294.821C273.304 294.474 275.437 292.007 276.177 290.023C276.818 287.999 276.853 285.863 276.279 283.824C276.102 283.299 276.076 282.745 276.203 282.209C276.581 281.498 277.245 280.935 278.067 280.629C281.949 278.667 285.83 276.709 289.712 274.754C290.404 274.448 291.034 274.042 291.576 273.555C292.789 272.288 292.61 270.393 291.985 268.835C291.359 267.277 290.363 265.808 290.12 264.171C289.405 259.272 295.381 255.752 297.398 251.133C298.084 249.29 298.454 247.367 298.496 245.427C298.662 243.342 298.675 240.932 296.862 239.598C295.113 238.309 292.393 238.6 290.567 237.401C288.895 236.302 288.32 234.183 286.494 233.297C284.834 232.49 282.766 233.006 280.914 232.625C277.671 231.963 275.628 228.679 272.308 228.376C270.444 228.197 268.325 229.004 266.793 228.051C265.439 227.199 265.388 225.506 265.133 224.071C264.679 221.836 263.457 219.776 261.631 218.169C259.805 216.562 257.463 215.484 254.918 215.08C252.99 214.811 250.896 214.912 249.249 213.982C247.589 213.04 246.836 211.28 245.521 209.968C243.427 207.872 240.107 207.121 237.004 206.482C232.79 205.619 228.581 204.752 224.376 203.881C222.142 203.41 219.256 203.163 218.043 204.89C217.684 205.546 217.435 206.245 217.302 206.964C216.846 208.258 215.937 209.392 214.703 210.205C213.47 211.019 211.975 211.469 210.433 211.493C209.377 209.91 207.667 208.745 205.658 208.242C204.345 208.048 203.048 207.779 201.776 207.435C201.112 207.149 200.521 206.747 200.039 206.254C199.558 205.761 199.196 205.186 198.976 204.566C198.756 203.946 198.683 203.293 198.76 202.647C198.838 202.001 199.065 201.376 199.427 200.809C200.151 199.672 200.429 198.356 200.219 197.066C200.009 195.776 199.323 194.582 198.265 193.668C196.12 191.975 193.017 191.56 190.131 191.729C189.378 190.282 190.642 188.657 191.996 187.603C193.362 186.561 195.009 185.529 195.303 183.96C195.775 181.493 192.187 179.621 189.467 180.35C186.748 181.09 185.011 183.41 183.862 185.697C183.305 187.047 182.545 188.325 181.602 189.498C181.119 190.078 180.463 190.53 179.706 190.803C178.948 191.076 178.12 191.159 177.312 191.045C175.065 190.54 174.209 188.197 173.711 186.224C172.913 183.587 172.51 180.87 172.511 178.141C172.531 175.386 173.777 172.746 175.984 170.787C179.7 167.783 185.42 168.074 190.438 168.556C189.9 167.927 189.643 167.147 189.713 166.363C189.784 165.579 190.178 164.844 190.821 164.296C191.492 163.773 192.299 163.401 193.172 163.214C194.044 163.026 194.955 163.028 195.826 163.22C197.339 163.495 198.702 164.21 199.695 165.249C201.125 166.774 201.533 168.848 202.606 170.574C203.691 172.312 206.117 173.792 208.096 172.861C209.82 172.054 210.088 169.969 209.667 168.298C209.233 166.639 208.326 165.014 208.479 163.31C208.773 160.07 212.616 158.108 216 156.774C219.384 155.44 223.252 153.635 223.789 150.406C223.814 149.779 223.951 149.158 224.197 148.568C224.572 148.041 225.095 147.609 225.717 147.312C235.587 141.584 245.635 135.777 256.923 132.649C257.51 132.481 257.574 132.66 258.174 132.537C259.017 132.111 258.455 130.934 257.65 130.463C256.846 129.992 255.773 129.622 255.569 128.792C255.429 128.187 255.837 127.582 255.939 126.965C255.966 126.593 255.888 126.22 255.713 125.88C255.538 125.54 255.27 125.243 254.933 125.015C254.597 124.788 254.202 124.636 253.783 124.573C253.364 124.51 252.934 124.539 252.53 124.656C251.624 123.602 253.411 122.38 254.867 122.021C259.225 120.973 263.698 120.334 268.21 120.115C268.731 120.04 269.265 120.119 269.729 120.34C270.061 120.621 270.258 121.003 270.279 121.407C270.301 121.811 270.145 122.208 269.844 122.515C269.23 123.114 268.55 123.658 267.814 124.14C267.081 124.765 266.558 125.554 266.302 126.422C266.045 127.29 266.065 128.203 266.358 129.061C268.721 130.115 271.274 131.203 273.892 130.833C276.496 130.463 278.808 127.884 277.582 125.833C276.445 123.916 273.011 123.479 272.423 121.382C271.734 118.927 275.692 116.741 274.798 114.342C274.415 113.288 273.215 112.66 272.296 111.909C271.214 110.974 270.478 109.774 270.184 108.466C269.89 107.159 270.052 105.803 270.649 104.578C269.154 104.807 267.618 104.719 266.17 104.321C264.722 103.923 263.403 103.227 262.324 102.291C260.332 100.531 258.748 97.7391 255.914 97.8288C253.322 97.896 251.087 100.553 248.661 99.7458C248.061 99.544 247.436 99.1404 246.861 99.3758C246.672 99.4828 246.512 99.6262 246.395 99.7951C246.278 99.9641 246.206 100.154 246.184 100.351C245.572 102.941 246.631 105.889 245.022 108.131C243.273 110.564 239.226 110.9 237.106 113.098C235.957 114.286 235.51 115.889 234.45 117.145C233.39 118.4 231.156 119.207 229.879 118.109C230.505 116.983 230.676 115.705 230.365 114.483C230.054 113.26 229.28 112.167 228.168 111.382C226.992 110.705 225.722 110.162 224.389 109.768C222.899 109.216 221.482 108.525 220.162 107.705C219.505 107.354 218.97 106.849 218.618 106.248C218.339 105.492 218.375 104.673 218.72 103.939C219.366 102.319 220.503 100.886 222.008 99.7914C223.513 98.6971 225.329 97.9837 227.262 97.7279C228.947 97.5261 230.913 97.5934 232.037 96.4611C232.624 95.8669 232.931 94.9589 233.799 94.7235C234.346 94.6232 234.915 94.6823 235.421 94.8917C237.527 95.5419 239.621 96.1921 241.728 96.8423C242.431 97.1252 243.207 97.2374 243.975 97.1674C244.356 97.1243 244.704 96.9554 244.949 96.6951C245.193 96.4348 245.315 96.1027 245.291 95.7661C245.086 94.8468 243.477 94.4096 243.631 93.4791C243.705 93.1751 243.889 92.9001 244.154 92.6944C246.432 90.5676 249.216 88.9091 252.308 87.8374C255.401 86.7656 258.725 86.3072 262.043 86.4949C262.834 87.6496 261.583 89.0061 260.523 89.9814C259.476 90.9679 258.634 92.7168 259.91 93.4679C260.425 93.7051 261.002 93.821 261.583 93.8042C263.136 93.9871 264.645 94.3883 266.052 94.9925C268.235 95.8221 270.38 96.7414 272.474 97.7279C272.166 96.526 272.219 95.2743 272.628 94.0957C272.858 93.5171 273.326 93.0347 273.94 92.7425C274.554 92.4503 275.269 92.3692 275.947 92.515C277.199 92.941 277.837 94.3984 279.178 94.5329C280.953 94.7123 281.655 92.4029 280.914 90.9679C280.174 89.533 278.693 88.3447 278.578 86.764C278.488 85.7102 278.948 84.3985 277.99 83.7595C277.65 83.5615 277.26 83.4384 276.854 83.4008C268.835 82.1116 260.813 80.8186 252.786 79.5219C251.356 79.2865 249.3 79.4659 249.236 80.7327C249.198 81.4501 249.926 82.1564 249.606 82.8066C249.262 83.5017 248.138 83.4456 247.321 83.6923C246.707 83.9368 246.2 84.3503 245.878 84.8701C245.555 85.3899 245.434 85.9878 245.533 86.5734C245.751 87.7391 246.267 88.8465 247.04 89.8132C245.469 89.2415 243.107 89.1406 241.537 88.5577C241.308 86.961 240.845 85.3971 240.158 83.9053C240.118 83.6678 240.02 83.4408 239.87 83.2403C239.721 83.0397 239.522 82.8704 239.29 82.7443C239.057 82.6182 238.796 82.5383 238.525 82.5104C238.253 82.4824 237.978 82.507 237.719 82.5824C235.65 82.8627 233.582 83.1317 231.514 83.412C230.994 83.4336 230.497 83.6028 230.096 83.8941C229.292 84.6452 230.083 85.8447 230.058 86.8761C229.983 87.4528 229.706 87.9947 229.264 88.4266C228.823 88.8586 228.239 89.159 227.594 89.2863C226.294 89.518 224.953 89.5027 223.661 89.2415C220.763 88.8491 217.877 88.4567 214.979 88.0644C217.537 87.3486 219.812 86.0116 221.541 84.2079C222.691 83.0196 223.304 80.7999 221.644 80.2394C221.153 80.1212 220.642 80.087 220.137 80.1385C216.204 80.1609 213.102 77.2798 209.424 76.0579C208.268 75.6791 207.045 75.4818 205.811 75.4749L201.7 79.903Z" fill="#075706"/>
<path id="Vector_3" d="M537.331 196.964C536.889 197.514 536.31 197.955 535.642 198.249C534.975 198.543 534.24 198.68 533.502 198.649C529.586 198.335 527.934 193.094 524.056 192.502C523.712 192.42 523.349 192.453 523.03 192.595C522.454 192.885 522.354 193.606 522.316 194.21C522.154 197.208 522.016 200.322 523.28 203.088C525.119 207.132 529.886 210.525 528.885 214.813C523.505 212.501 520.702 206.888 519.439 201.508C518.163 196.127 517.962 190.48 515.685 185.39C513.946 187.447 510.318 185.75 508.741 183.589C507.24 181.544 506.314 179.173 504.862 177.093C503.411 175.024 501.184 173.165 498.531 173.049C495.741 172.933 493.314 174.711 491.187 176.396C489.337 177.665 487.783 179.27 486.62 181.114C485.131 183.903 485.519 187.18 485.444 190.282C485.369 193.629 484.606 197.173 482.141 199.637C479.676 202.089 475.134 202.949 472.419 200.729C471.107 199.458 470.171 197.893 469.704 196.186C466.753 188.196 464.296 180.056 462.347 171.806C461.897 173.688 460.108 176.117 458.406 175.013C458.026 174.712 457.719 174.34 457.505 173.921C454.327 168.935 448.459 165.937 442.516 164.136C436.585 162.346 430.342 161.51 424.474 159.534C421.183 158.424 418.039 156.97 415.103 155.2C414.357 156.22 413.921 157.409 413.842 158.64C413.763 159.871 414.043 161.1 414.652 162.195C415.312 163.268 416.334 164.107 417.56 164.584C418.787 165.061 420.148 165.149 421.434 164.833C422.735 164.438 423.836 163.601 425.125 163.183C426.413 162.776 428.152 162.974 428.716 164.136C429.266 165.24 428.44 166.576 428.853 167.738C429.466 169.493 432.331 169.633 433.332 171.236C433.627 171.871 433.694 172.577 433.525 173.25C433.356 173.924 432.96 174.529 432.394 174.978C431.243 175.85 429.972 176.577 428.615 177.139C424.411 179.312 421.421 183.019 417.743 185.901C414.064 188.795 408.872 190.898 404.493 189.051C405.531 184.135 399.238 180.533 398.074 175.64C397.686 174.025 397.886 172.317 397.348 170.748C396.56 168.47 394.383 166.913 392.606 165.193C390.448 163.082 388.766 160.591 387.659 157.867C386.553 155.143 386.044 152.241 386.163 149.331C386.263 147.309 386.663 145.253 386.163 143.277C385.675 141.313 383.911 139.407 381.734 139.489C376.766 139.698 370.498 140.046 367.896 136.107C366.957 134.701 366.557 132.644 367.908 131.564C368.859 130.808 370.26 130.878 371.499 130.994C375.24 131.331 378.969 131.68 382.71 132.017C385.325 132.249 388.152 132.447 390.404 131.18C392.656 129.913 393.632 126.532 391.543 125.033C390.029 123.94 387.301 123.999 386.851 122.267C386.488 120.814 388.215 119.176 387.276 117.956C386.613 117.096 385.112 117.328 384.198 117.979C383.401 118.748 382.535 119.451 381.609 120.082C379.819 120.942 377.692 120.117 375.765 119.559C373.839 119.002 371.261 118.955 370.335 120.617C369.284 122.465 371.249 124.905 370.223 126.764C368.846 129.216 364.217 127.822 362.29 129.937C360.088 132.354 363.792 135.979 363.053 139.07C362.103 139.508 361.047 139.709 359.987 139.654C358.928 139.599 357.902 139.29 357.01 138.757C356.135 138.204 355.437 137.44 354.992 136.548C354.547 135.656 354.371 134.668 354.483 133.69C354.658 132.296 355.446 130.866 354.921 129.553C354.354 128.539 353.419 127.744 352.281 127.31C348.652 125.439 345.024 123.576 341.395 121.721C340.382 123.464 341.658 125.614 343.26 126.927C344.849 128.228 346.851 129.216 347.902 130.936C348.567 132.128 348.717 133.511 348.322 134.802C347.927 136.094 347.016 137.197 345.775 137.885C345.617 137.985 345.439 138.053 345.251 138.083C345.063 138.113 344.87 138.105 344.686 138.059C344.513 137.965 344.361 137.839 344.241 137.689C344.121 137.54 344.034 137.369 343.985 137.188C342.071 132.621 339.181 128.124 334.576 125.742C329.96 123.348 323.341 123.847 320.313 127.857C319.6 128.809 319.112 129.902 318.486 130.913C315.171 136.27 308.039 138.803 301.383 138.64C300.731 138.679 300.083 138.538 299.518 138.234C298.442 137.548 298.492 136.084 298.655 134.875C298.893 133.167 299.118 131.471 299.356 129.762C299.361 128.719 299.796 127.718 300.569 126.962C301.808 126.055 303.585 126.625 305.161 126.602C306.351 126.552 307.495 126.163 308.438 125.487C309.381 124.811 310.076 123.881 310.429 122.825C310.746 121.759 310.743 120.632 310.421 119.567C310.099 118.502 309.47 117.539 308.602 116.782C307.889 116.155 306.925 115.364 307.301 114.516C307.453 114.282 307.659 114.082 307.903 113.93C308.147 113.777 308.424 113.676 308.715 113.633C311.53 112.878 314.52 112.68 317.285 111.774C320.063 110.879 322.753 109.043 323.416 106.382C323.616 105.568 323.704 104.581 324.492 104.174C324.89 104.026 325.314 103.947 325.743 103.941C327.247 103.741 328.617 103.026 329.582 101.936C330.548 100.845 331.039 99.4594 330.96 98.0498C332.287 97.1899 334.151 97.829 335.44 98.747C336.716 99.6651 337.855 100.874 339.418 101.269C342.334 102.012 345.149 99.607 348.177 99.5953C349.453 99.5953 350.767 100.014 351.955 99.607C353.169 99.2002 353.895 98.0847 354.821 97.2596C355.759 96.4229 357.385 95.9232 358.249 96.818C357.999 95.133 357.761 93.4597 357.511 91.7863C358.985 92.1311 360.521 92.1788 362.017 91.9263C363.512 91.6737 364.932 91.1267 366.181 90.3221C363.028 89.3344 359.888 88.3466 356.735 87.3589C356.404 87.283 356.098 87.1312 355.847 86.9173C355.158 86.2317 355.847 85.1626 356.397 84.384C357.736 82.5131 357.961 79.4336 355.759 78.504C354.258 77.8649 352.543 78.6318 351.105 79.3755C348.802 80.5608 346.5 81.7578 344.198 82.9431C343.985 84.1632 345.587 84.8604 346.575 85.6739C347.178 86.1701 347.604 86.8241 347.799 87.5498C347.993 88.2754 347.946 89.0388 347.665 89.7393C347.383 90.4398 346.879 91.0448 346.221 91.4744C345.562 91.9041 344.778 92.1384 343.973 92.1465C344.426 92.6963 344.741 93.3334 344.895 94.0111C345.049 94.6887 345.037 95.3897 344.861 96.0627C343.322 96.1673 341.771 96.2718 340.219 96.3764C339.962 96.4242 339.696 96.4241 339.439 96.3762C339.181 96.3283 338.936 96.2336 338.718 96.0975C338.217 95.6908 338.293 94.9704 338.167 94.3661C337.961 93.6438 337.527 92.9955 336.92 92.5046C336.314 92.0137 335.563 91.7028 334.764 91.612C333.17 91.4455 331.556 91.5839 330.022 92.0187C329.355 92.237 328.625 92.2205 327.97 91.9722C327.599 91.744 327.318 91.4094 327.17 91.0193C326.897 90.2225 326.851 89.3739 327.035 88.5555C327.219 87.7372 327.627 86.9768 328.22 86.3479C329.422 85.1087 330.746 83.9765 332.174 82.9663C335.412 80.3339 337.791 76.9123 339.043 73.0888C341.596 72.0895 344.236 70.7415 346.801 69.7421C348.863 68.8546 351.023 68.1804 353.244 67.7317C355.334 67.4353 357.452 67.3418 359.563 67.4528C362.44 67.4993 365.331 67.5458 368.208 67.6039C370.777 67.5037 373.344 67.8464 375.778 68.6149C378.143 69.5213 380.232 71.4852 380.395 73.8558C380.444 74.1259 380.418 74.4033 380.32 74.6616C380.221 74.9199 380.053 75.1505 379.832 75.3316C379.499 75.5022 379.122 75.5827 378.743 75.564C376.353 75.6337 375.34 76.1915 372.95 76.2729C374.464 77.7719 376.166 79.3523 378.368 79.6196C382.247 80.0844 385.037 76.3542 386.826 73.1121C386.89 73.9373 387.298 74.7067 387.965 75.2559C388.631 75.8052 389.502 76.0909 390.392 76.0521C391.35 75.899 392.265 75.5669 393.082 75.0759C400.778 71.1697 409.398 69.1012 418.168 69.0565C418.082 68.4398 418.245 67.8155 418.627 67.3045C419.008 66.7935 419.58 66.4322 420.232 66.2908C422.022 65.9654 423.623 67.3947 424.486 68.8822C425.337 70.3696 425.875 72.0894 427.252 73.205C428.615 74.3206 431.255 74.2625 431.793 72.6589C432.319 71.1133 430.58 69.7886 429.141 68.8706C427.689 67.9642 426.176 66.2792 427.151 64.9311C434.508 63.4088 441.928 61.8982 449.473 61.596C450.755 61.6321 452.032 61.4265 453.226 60.9918C453.818 60.7591 454.31 60.3517 454.626 59.8328C454.943 59.3138 455.067 58.7123 454.978 58.1215C453.331 58.4783 451.608 58.3728 450.026 57.8183C448.445 57.2638 447.076 56.2854 446.094 55.0071C453.839 54.4145 461.947 53.8916 469.391 55.5068L475.91 60.6431C474.671 61.84 473.02 62.9673 473.921 64.1642C474.218 64.4391 474.578 64.6477 474.975 64.7746C475.372 64.9014 475.794 64.943 476.21 64.8963C477.787 64.9195 479.363 64.9544 480.927 64.9544C513.29 93.7052 533.209 132.459 536.93 173.909C534.303 173.816 531.888 176.907 532.226 179.603C532.626 182.729 535.053 185.239 536.793 187.935C537.081 188.373 537.34 188.827 537.568 189.295L537.331 196.964Z" fill="#075706"/>
</g>
</g>
</svg>
