<svg width="728" height="742" viewBox="0 0 728 742" fill="none" xmlns="http://www.w3.org/2000/svg">
<path d="M375.538 16.5035H344.21C345.651 19.9209 346.201 23.6287 345.811 27.3001C345.422 30.9716 344.106 34.4941 341.978 37.5574C339.85 40.6207 336.977 43.1306 333.61 44.8662C330.244 46.6018 326.488 47.5097 322.673 47.51H185.181C181.366 47.5097 177.61 46.6018 174.244 44.8662C170.877 43.1306 168.003 40.6207 165.876 37.5574C163.748 34.4941 162.431 30.9716 162.042 27.3001C161.653 23.6286 162.203 19.9209 163.644 16.5034H134.383C127.954 16.5034 121.587 17.7287 115.646 20.1094C109.706 22.4901 104.309 25.9795 99.7621 30.3784C95.2155 34.7773 91.609 39.9996 89.1484 45.7471C86.6879 51.4945 85.4214 57.6546 85.4214 63.8756V664.278C85.4214 670.499 86.6879 676.659 89.1484 682.407C91.609 688.154 95.2155 693.376 99.7621 697.775C104.309 702.174 109.706 705.664 115.646 708.044C121.587 710.425 127.954 711.65 134.383 711.65H375.538C381.968 711.65 388.334 710.425 394.275 708.044C400.215 705.664 405.613 702.174 410.159 697.775C414.706 693.376 418.312 688.154 420.773 682.407C423.233 676.659 424.5 670.499 424.5 664.278V63.8757C424.5 57.6547 423.233 51.4946 420.773 45.7471C418.312 39.9996 414.706 34.7774 410.159 30.3785C405.613 25.9795 400.215 22.4901 394.275 20.1095C388.334 17.7288 381.968 16.5035 375.538 16.5035V16.5035Z" fill="white"/>
<path d="M442.591 173.037H438.456V63.4347C438.456 55.1043 436.76 46.8555 433.465 39.1592C430.17 31.463 425.341 24.47 419.253 18.5795C413.165 12.6891 405.937 8.01651 397.982 4.82863C390.028 1.64075 381.502 -2.62777e-05 372.892 3.15644e-10H132.894C124.284 -1.97082e-05 115.758 1.64075 107.804 4.82863C99.8493 8.01652 92.6216 12.6891 86.5335 18.5795C80.4453 24.47 75.616 31.463 72.3211 39.1592C69.0262 46.8555 67.3304 55.1043 67.3304 63.4347V664.719C67.3304 673.05 69.0262 681.298 72.3211 688.995C75.616 696.691 80.4453 703.684 86.5335 709.574C92.6216 715.465 99.8493 720.137 107.804 723.325C115.758 726.513 124.284 728.154 132.894 728.154H372.892C381.502 728.154 390.028 726.513 397.982 723.325C405.937 720.137 413.165 715.465 419.253 709.574C425.341 703.684 430.17 696.691 433.465 688.995C436.76 681.298 438.456 673.05 438.456 664.719V251.053H442.591V173.037Z" fill="#040312"/>
</svg>
