<svg width="343" height="332" viewBox="0 0 343 332" fill="none" xmlns="http://www.w3.org/2000/svg">
<g id="river" clip-path="url(#clip0)">
<g id="Group">
<path id="Vector" d="M49.7348 38.2623C46.4763 39.5073 43.7323 42.4123 43.7323 44.5703C43.7323 45.9813 43.2178 46.4793 41.76 46.4793C40.6453 46.4793 38.8445 47.3923 37.7298 48.5543C36.1863 50.2143 35.8433 51.2103 36.272 53.8663C36.5293 55.6923 36.5293 57.3523 36.272 57.6013C36.0148 57.8503 34.557 56.6883 33.0135 55.1113C30.6983 52.7873 29.5835 52.2893 26.668 52.2893C23.8383 52.2893 22.4663 52.8703 19.808 55.2773C17.9215 56.8543 15.9493 59.5103 15.349 61.1703L14.4058 64.0753L11.6618 61.5853C9.00355 59.0953 5.4878 57.1863 1.97205 56.1073C-1.3722 55.1113 -0.343203 57.6843 3.0868 58.8463C6.77405 60.1743 12.4335 64.9053 14.2343 68.2253C15.8635 71.2133 17.1498 70.5493 17.1498 66.6483C17.1498 62.7473 20.151 57.7673 23.6668 55.9413C27.5255 53.9493 30.2695 55.1943 32.7563 60.1743C33.7853 62.2493 34.9 63.9093 35.243 63.9093C35.586 63.9093 36.4435 62.9133 37.301 61.7513C38.33 60.1743 39.2733 59.6763 40.8168 60.0083C43.3035 60.4233 43.3893 60.0083 41.1598 57.2693C39.4448 55.1113 39.1018 53.3683 39.9593 51.1273C40.5595 49.6333 42.9605 49.3843 44.2468 50.6293C46.1333 52.4553 47.8483 50.7123 47.4195 47.4753C47.0765 45.1513 47.4195 44.0723 48.62 43.0763C52.393 39.8393 59.1673 40.8353 61.3968 44.9023C63.026 48.0563 65.427 47.8073 66.113 44.4043C66.5418 42.3293 66.7133 42.1633 67.3135 43.4083C67.9138 44.8193 67.7423 46.7283 66.3703 51.9573C65.77 54.2813 65.77 54.2813 69.9718 50.7123C75.6313 45.8983 79.7473 43.9893 84.4635 43.9893C89.6085 43.9893 92.6098 46.6453 92.6098 51.2103C92.6098 55.0283 91.0663 57.3523 86.35 60.6723L82.92 63.0793H86.7788C91.2378 63.0793 93.0385 64.5733 92.7813 68.0593C92.6098 70.7153 94.4963 71.8773 96.0398 70.0513C98.2693 67.5613 102.986 69.1383 105.044 73.0393C107.273 77.2723 106.759 80.8413 103.329 83.7463C99.6413 86.8173 99.5555 87.9793 102.9 87.9793C106.501 87.9793 109.245 90.8013 108.474 93.6233C107.788 96.6113 106.587 97.6073 102.471 99.1013L99.041 100.346H102.3C106.587 100.429 106.416 102.255 102.042 104.164C100.156 104.994 98.698 105.741 98.7838 105.907C98.9553 105.99 101.528 105.575 104.615 104.994C107.702 104.413 110.274 103.998 110.446 104.164C110.617 104.247 109.074 105.575 107.016 107.069C104.1 109.144 103.757 109.642 105.472 109.227C113.447 107.235 117.049 107.733 121.336 111.385C123.823 113.46 124.337 114.456 124.337 117.195C124.337 121.096 121.765 123.752 116.363 125.578C112.761 126.823 112.761 126.906 117.049 128.234C118.849 128.732 119.621 131.056 118.592 132.799C117.735 134.044 118.078 134.127 121.765 134.127C125.023 134.044 126.395 134.459 128.11 136.036C131.283 138.858 132.484 142.925 131.026 145.747C128.968 149.897 125.709 151.474 119.364 151.474C116.191 151.474 112.59 151.142 111.389 150.81C109.331 150.312 109.245 150.478 109.588 152.636C109.846 154.379 109.417 155.375 107.959 156.371C104.186 158.944 100.413 157.201 100.242 152.885C100.242 150.976 100.07 151.142 99.1268 153.964C98.1835 157.201 98.012 157.284 93.9818 157.533C90.2945 157.782 89.6943 157.533 87.036 154.877L84.1205 151.889L83.8633 154.13C83.4345 158.031 77.5178 157.45 76.1458 153.383C75.8885 152.719 75.2025 152.802 73.7448 153.798C72.4585 154.711 69.9718 155.209 67.2278 155.209C61.311 155.209 57.4523 152.719 55.7373 147.739L54.451 144.004L54.0223 147.241C53.5078 150.976 51.4498 152.387 51.4498 149.067C51.4498 147.407 51.021 146.909 49.5633 146.909C48.4485 146.909 46.8193 147.49 45.9618 148.154C43.6465 149.897 37.987 149.648 33.528 147.739C29.6693 145.996 28.2973 146.162 28.2973 148.237C28.2973 150.395 23.581 154.213 20.3225 154.794C18.0073 155.209 16.2923 154.96 13.8913 153.798C10.7185 152.304 10.547 152.304 8.0603 153.715C6.6883 154.545 4.2873 155.209 2.82955 155.209C0.171297 155.209 -0.000203297 155.375 -0.000203297 158.197C-0.000203297 160.604 0.943047 162.347 4.54455 166.58L9.00355 171.975L9.4323 163.841L9.86105 155.624L10.6328 162.098L11.3188 168.489L20.0653 171.062C24.7815 172.556 29.1548 173.884 29.755 174.05C30.2695 174.299 32.3275 172.141 34.2998 169.319L37.9013 164.173L36.1005 157.948C35.0715 154.545 34.2998 151.64 34.4713 151.474C34.6428 151.391 35.586 151.557 36.615 151.972C37.9013 152.387 39.359 154.462 40.731 157.367C42.5318 161.185 42.8748 163.343 42.8748 169.402C42.8748 173.386 43.2178 176.872 43.6465 177.121C43.9895 177.37 49.649 173.967 56.166 169.651L67.9138 161.683L72.7158 162.181C75.4598 162.513 80.0903 163.26 83.1773 163.841L88.751 165.003L78.8898 165.086L68.9428 165.169L60.968 174.465L52.9933 183.844L53.5078 193.804C54.3653 209.076 56.852 236.466 57.538 237.462C57.9668 238.126 61.2253 237.794 69.1143 236.3C75.2025 235.138 78.6325 234.225 76.746 234.308C74.5165 234.308 71.3438 233.312 67.7423 231.569C57.538 226.589 57.7095 226.838 57.1093 218.123C56.7663 213.89 56.3375 207.582 56.0803 204.096L55.5658 197.871L62.5115 195.132C66.3703 193.721 76.1458 190.899 84.292 188.907C101.013 184.757 102.9 184.176 104.615 182.267C105.558 181.022 105.558 180.69 104.358 179.528C102.557 177.785 85.4068 176.623 71.601 177.37L61.3968 177.868L63.4548 175.295L65.5985 172.722L84.8923 172.473C121.336 171.975 151.777 172.805 151.777 174.299C151.777 174.631 145.346 176.125 137.457 177.536C96.1255 185.172 71.0008 194.053 66.3703 202.602C63.712 207.665 65.77 212.728 72.287 217.293C76.403 220.115 89.9515 226.838 93.4673 227.751C94.6678 228.083 91.9238 226.589 87.4648 224.514C77.9465 220.032 74.2593 217.459 72.3728 214.056C69.9718 209.491 72.7158 205.59 81.4623 201.274C89.1798 197.539 101.699 193.804 130.94 186.417C157.523 179.777 160.352 178.864 160.352 177.038C160.352 175.544 166.098 175.627 167.727 177.121C168.327 177.785 172.615 179.528 177.074 180.939C181.618 182.433 185.134 183.761 184.963 183.927C184.791 184.176 177.159 185.836 167.984 187.579C148.69 191.48 141.916 193.389 135.656 196.875C127.596 201.274 126.824 204.843 132.655 210.321C136.342 213.807 148.433 219.949 160.009 224.348C164.383 226.008 189.25 234.225 215.318 242.608C278.687 263.026 300.211 271.409 317.875 282.697C339.398 296.475 337.941 308.178 313.502 319.549C305.356 323.284 288.034 329.343 281.26 330.754C279.631 331.169 278.687 331.584 279.288 331.75C279.802 331.916 284.347 330.92 289.406 329.509C325.764 319.217 339.827 308.427 334.082 295.064C330.909 287.76 318.218 278.464 299.525 269.583C281.946 261.283 261.194 253.73 218.662 240.201C158.123 220.945 147.919 217.127 137.028 210.155C133.513 207.997 131.112 204.511 131.798 202.685C132.484 201.025 134.627 201.523 134.627 203.432C134.627 209.325 141.573 212.23 202.198 231.984C229.724 240.865 258.965 250.659 267.197 253.647C304.841 267.176 326.364 278.298 337.769 290.084C340.599 293.072 343 295.064 343 294.4C343 292.491 331.767 282.697 323.878 277.717C319.847 275.144 310.329 270.081 302.955 266.429C276.115 253.481 247.903 243.189 197.654 227.834C147.147 212.562 138.229 209.325 136.342 205.922C134.885 203.266 135.313 203.183 139.258 205.424C143.117 207.665 156.151 212.479 158.037 212.479C158.637 212.396 155.636 211.151 151.349 209.657C141.402 206.171 138.658 204.76 136.342 201.938L134.456 199.614L136.685 197.871C139.515 195.464 147.49 192.974 159.495 190.816C184.019 186.417 189.765 185.172 191.308 183.761C192.166 183.014 192.937 182.018 192.937 181.686C192.937 180.524 188.393 178.615 182.133 177.121C178.874 176.374 175.873 175.378 175.359 175.046C174.415 174.216 215.49 174.05 227.066 174.797L234.955 175.378V177.868V180.275L230.239 179.694C225.865 179.196 225.265 179.362 222.693 181.437C221.235 182.682 216.862 185.089 213.174 186.915C205.8 190.318 206.229 190.65 216.433 189.239C219.606 188.741 223.379 187.662 224.665 186.749C226.723 185.338 227.58 185.255 232.039 185.919C240.786 187.247 253.305 188.243 255.792 187.828L258.193 187.33L256.307 185.421C255.278 184.342 254.506 183.346 254.763 183.18C254.935 183.014 256.135 182.516 257.421 182.018C259.222 181.188 259.737 181.271 260.165 182.267C260.594 183.429 264.196 183.927 265.225 182.931C265.482 182.682 264.539 181.437 263.167 180.358C260.68 178.283 260.423 178.283 255.449 179.196C249.704 180.275 248.675 180.026 248.675 177.287C248.675 175.378 248.846 175.378 262.995 174.88C270.798 174.548 283.832 174.299 291.979 174.299C314.359 174.299 343 173.303 343 172.473C343 172.141 321.562 171.809 295.323 171.809H247.56L248.075 167.161C248.332 164.588 248.761 162.264 249.018 162.098C249.275 161.849 250.304 162.513 251.247 163.592C252.962 165.418 252.962 165.418 252.191 163.758C249.961 159.359 252.791 155.458 255.363 159.276L256.65 161.102L257.593 159.276C259.051 156.371 261.194 155.458 263.338 156.703C264.882 157.699 265.139 157.616 265.568 156.122C265.825 155.126 266.768 154.379 267.626 154.379C268.655 154.379 268.998 153.964 268.74 153.134C267.454 149.98 273.199 147.822 278.259 149.399C281.86 150.561 282.718 152.968 281.431 158.446C280.574 162.181 280.66 162.181 282.032 160.272C285.462 155.292 286.148 154.794 287.605 155.956C289.578 157.533 289.32 158.861 286.662 161.932L284.261 164.671L286.405 164.007C291.55 162.513 296.438 162.513 298.753 163.924C300.897 165.252 301.154 165.252 302.612 164.007C304.927 162.015 305.613 162.347 307.156 166.165L308.614 169.734V166.58C308.7 163.675 309.729 162.596 310.844 164.339C312.13 166.331 313.845 165.086 313.845 162.347C313.845 157.699 316.846 155.043 322.591 154.545C328.937 154.047 330.48 155.541 329.88 161.351C329.366 165.501 329.366 165.501 330.566 163.094C331.252 161.683 331.767 160.106 331.852 159.525C331.852 158.114 334.939 158.28 336.569 159.857C337.34 160.604 337.855 162.181 337.683 163.343C337.426 165.252 337.769 165.501 339.999 165.501C341.799 165.584 342.657 165.169 342.828 164.09C343 163.177 342.571 162.679 341.542 162.679C340.427 162.679 339.656 161.766 339.141 159.94C338.541 158.031 337.598 157.035 335.54 156.454C334.082 155.956 332.11 154.877 331.081 154.047C325.678 149.316 313.759 151.806 311.187 158.28C310.586 159.774 309.815 160.106 306.813 160.106C304.755 160.106 302.354 160.106 301.411 160.189C300.468 160.272 298.067 160.023 296.18 159.774C293.093 159.276 292.493 158.778 291.807 156.537C291.293 154.628 290.349 153.715 288.12 153.051C286.491 152.553 284.861 151.308 284.433 150.395C282.032 145.166 270.112 144.751 267.197 149.814C266.168 151.64 263.252 153.964 261.966 154.047C260.08 154.13 257.25 155.375 257.25 156.039C257.25 156.454 256.135 156.62 254.677 156.371C253.134 156.039 251.59 156.288 250.819 156.869C249.961 157.533 249.532 157.616 249.532 157.035C249.532 156.537 251.848 155.458 254.763 154.711C259.737 153.383 260.165 152.968 263.51 148.071C266.682 143.423 267.454 142.759 269.941 142.759C272.428 142.759 276.115 140.435 276.115 138.775C276.115 138.443 276.972 137.779 278.001 137.364C280.574 136.202 281.26 133.629 279.888 129.894C279.202 128.068 278.687 125.578 278.687 124.25C278.687 122.009 276.115 118.689 274.314 118.689C273.714 118.689 273.542 117.361 273.971 114.539C274.571 110.555 274.486 110.389 271.913 108.978C269.855 107.816 269.426 107.069 269.855 105.575C270.455 103.085 268.74 99.1843 266.168 97.5243C263.424 95.7813 257.336 95.9473 254.763 97.8563C252.705 99.4333 252.619 99.4333 250.99 97.4413C249.275 95.2833 245.416 94.7853 243.701 96.4453C242.93 97.1923 242.672 97.1923 242.672 96.1963C242.672 95.5323 241.043 93.5403 239.157 91.7973C235.727 88.8093 235.469 88.7263 231.182 89.2243C228.781 89.5563 226.466 90.0543 226.123 90.4693C225.78 90.8013 223.55 90.8843 221.321 90.6353C217.805 90.3033 216.862 90.5523 215.232 92.1293C213.689 93.6233 213.432 94.6193 213.775 97.2753C214.203 100.097 213.946 100.595 212.231 101.259C208.372 102.67 206.229 107.982 208.372 111.219C208.801 111.966 208.801 112.796 208.201 113.46C207.686 114.041 207.515 115.701 207.858 117.029C208.115 118.44 207.944 119.519 207.515 119.519C207 119.519 206.657 120.1 206.657 120.764C206.657 121.428 206.143 122.009 205.543 122.009C201.855 122.009 199.969 129.479 203.227 131.139C205.371 132.218 205.457 134.459 203.399 134.459C200.055 134.459 197.739 139.605 199.626 142.51C200.569 144.004 205.028 145.415 207.172 144.917C208.544 144.585 209.144 144.834 209.487 146.079C209.744 146.992 211.031 148.154 212.403 148.735C213.689 149.316 215.061 150.229 215.404 150.727C215.833 151.308 218.319 151.557 222.264 151.391L228.524 151.059L231.868 154.794C235.212 158.529 235.212 158.612 234.097 161.849C232.811 165.667 231.439 165.999 229.467 163.094C228.352 161.434 227.323 161.019 224.408 161.019C222.435 161.019 220.206 161.351 219.52 161.849C218.577 162.43 217.891 161.849 216.519 159.525C214.289 155.624 210.087 153.549 204.256 153.549C199.111 153.549 194.995 155.209 194.224 157.699C193.795 159.027 193.366 159.193 192.08 158.529C189.765 157.284 185.048 157.533 182.905 158.944C181.533 159.857 181.018 161.434 180.504 165.501L179.903 170.979L175.616 171.477C173.129 171.809 170.557 172.722 169.699 173.552C167.641 175.544 158.637 175.876 158.637 173.884C158.637 171.892 155.893 171.062 146.975 170.232C142.088 169.817 138.4 169.153 138.229 168.572C137.543 166.58 135.313 165.169 132.827 165.169C130.597 165.169 130.34 164.92 130.34 162.679C130.34 157.533 123.909 154.296 119.535 157.201C118.078 158.197 117.649 158.197 116.191 157.201C115.334 156.537 113.876 156.039 113.018 156.039C112.075 156.039 111.475 155.458 111.475 154.462C111.475 153.051 112.161 152.968 118.163 152.968C128.539 153.051 132.912 149.98 132.912 142.51C132.912 139.024 132.484 138.028 130.083 135.704C128.368 134.044 125.967 132.716 124.08 132.384C121.851 131.969 120.907 131.388 120.907 130.309C120.907 129.479 120.307 128.4 119.621 127.819C118.506 126.906 118.764 126.574 121.079 125.329C125.109 123.254 127.253 119.436 126.481 115.618C125.709 111.717 121.422 107.484 116.963 106.322C114.133 105.575 113.533 105.077 113.533 103.583C113.619 102.006 113.104 101.591 110.875 101.425C109.331 101.259 108.045 101.01 108.045 100.844C108.045 100.595 108.817 99.2673 109.76 97.7733C112.161 93.9553 111.989 90.0543 109.331 87.4813C107.273 85.4893 107.273 85.2403 108.474 82.9993C110.274 79.5963 110.103 75.0313 107.873 71.2133C105.73 67.4783 102.557 65.5693 98.6123 65.5693C97.0688 65.5693 96.0398 65.1543 96.0398 64.4903C96.0398 63.8263 95.268 62.6643 94.4105 61.8343C92.6955 60.4233 92.6955 60.4233 94.4963 58.0163C96.983 54.7793 97.0688 48.2223 94.6678 44.9853C90.466 39.5073 82.577 38.5113 75.1168 42.5783L71.4295 44.5703L70.6578 41.9973C70.0575 40.0053 69.2858 39.3413 67.3993 39.1753C66.0273 39.0093 64.5695 39.2583 64.1408 39.6733C63.6263 40.1713 62.1685 39.8393 60.1963 38.9263C56.7663 37.1833 53.079 37.0173 49.7348 38.2623ZM236.67 93.4573C236.67 95.2003 237.013 95.4493 238.385 95.0343C240.357 94.4533 241.643 96.5283 240.271 98.1883C239.585 98.9353 239.928 99.4333 241.386 100.097C243.101 100.927 243.444 100.761 244.302 99.1013C244.816 98.0223 245.845 97.1093 246.617 97.1093C248.846 97.1093 251.247 99.5993 251.247 101.84C251.247 102.836 251.676 103.749 252.105 103.749C252.619 103.749 252.962 103.417 252.962 103.002C252.962 101.093 257.593 97.9393 260.423 97.9393C266.082 97.9393 269.598 104.164 265.825 107.484C263.938 109.144 264.281 110.389 266.768 110.389C267.711 110.389 269.255 110.804 270.198 111.302C271.57 111.966 271.742 112.381 270.884 113.377C270.37 114.041 270.112 114.788 270.455 115.12C270.713 115.369 270.37 116.531 269.598 117.693C268.054 119.934 268.312 120.349 272.085 121.594C274.657 122.424 274.829 122.673 274.571 125.91C274.486 128.317 274.743 129.396 275.686 129.811C276.372 130.06 276.972 131.222 276.972 132.384C276.972 134.376 276.715 134.459 272.513 134.459L267.969 134.542L270.027 136.202C272.513 138.194 272.085 138.775 267.54 139.107C265.568 139.273 263.424 140.02 262.738 140.684C261.194 142.178 258.793 142.261 257.421 140.933C256.735 140.269 256.135 140.269 255.192 141.016C252.791 142.925 250.047 141.763 248.075 137.945C248.075 137.779 246.788 138.277 245.245 139.024C243.101 140.103 241.986 140.186 239.928 139.522C236.67 138.36 236.67 138.36 236.67 139.605C236.67 140.186 235.126 141.431 233.24 142.261C230.582 143.506 229.381 143.672 227.838 143.008C226.208 142.261 225.608 142.344 224.836 143.506C223.893 144.751 223.807 144.751 222.95 143.423C222.178 142.178 221.835 142.344 219.434 144.585C216.947 146.992 216.776 147.075 215.661 145.581C214.546 144.087 214.461 144.087 214.375 145.415C214.375 146.245 214.032 146.909 213.603 146.909C212.317 146.909 210.773 144.502 211.288 143.174C211.631 142.095 211.202 142.012 208.372 142.427C202.97 143.257 200.655 142.344 200.655 139.356C200.655 137.281 201.169 136.617 203.227 135.87C204.685 135.372 205.8 134.459 205.8 133.961C205.8 133.38 206.486 132.716 207.343 132.384C208.544 131.969 208.287 131.637 206.057 130.724C202.799 129.396 202.37 127.155 204.942 124.914C206.229 123.752 207.429 123.586 210.259 124.001C213.174 124.499 213.775 124.416 212.917 123.586C212.317 123.005 211.802 121.511 211.802 120.349C211.802 119.187 211.374 117.776 210.859 117.278C209.744 116.199 210.516 114.539 212.317 114.539C213.86 114.539 213.86 112.547 212.231 111.219C209.744 109.227 211.202 103.251 213.946 104.247C214.461 104.496 215.49 104.081 216.09 103.334C216.69 102.67 218.405 102.089 219.863 102.089H222.521L219.777 99.9313C216.604 97.5243 216.176 95.1173 218.577 93.7893C220.549 92.7933 222.435 93.3743 226.294 96.1133L229.21 98.1883L228.609 96.0303C228.181 94.3703 228.352 93.7893 229.295 93.7893C229.981 93.7893 230.667 93.2083 231.01 92.5443C231.268 91.7973 232.554 91.2993 234.097 91.2993C236.327 91.2993 236.67 91.6313 236.67 93.4573ZM243.959 145.415C243.616 147.49 243.959 148.735 245.416 150.478C247.389 152.802 247.389 152.802 251.162 151.474C255.449 150.063 256.735 149.897 256.049 150.976C255.792 151.391 253.648 152.138 251.333 152.719L247.217 153.632L246.617 158.695C245.845 166.082 245.931 170.481 247.131 176.54C247.989 181.354 248.332 181.852 249.875 181.437C259.051 179.113 260.851 178.947 262.052 180.524C262.738 181.354 263.081 182.267 262.824 182.516C262.566 182.682 261.88 182.184 261.194 181.271C259.994 179.777 259.822 179.777 253.648 181.769C248.332 183.512 247.732 183.844 249.961 184.093C251.419 184.259 252.962 184.757 253.391 185.255C253.991 185.836 253.22 186.002 250.819 185.67C248.932 185.338 245.245 184.923 242.587 184.591L237.87 184.093L238.814 176.042C239.5 170.979 239.585 165.999 239.071 162.264C238.471 157.118 238.042 156.205 234.955 153.134C233.068 151.308 231.525 149.482 231.525 149.15C231.525 148.901 233.754 149.897 236.498 151.474L241.386 154.379L241.901 149.565C242.329 145 243.101 142.759 244.044 142.759C244.302 142.759 244.216 144.004 243.959 145.415ZM53.3363 154.213C53.9365 153.964 55.48 154.462 56.6805 155.292C57.881 156.122 60.7108 157.201 62.9403 157.782L67.0563 158.778L64.2265 160.521C60.282 162.928 49.9063 163.592 48.7058 161.434C48.277 160.77 47.1623 160.189 46.3048 160.189C45.19 160.189 43.9895 159.027 42.8748 156.786C41.8458 154.877 41.1598 153.3 41.3313 153.217C41.5028 153.051 42.9605 152.636 44.5898 152.221C47.0765 151.474 48.0198 151.64 49.9063 152.968C51.1068 153.881 52.6503 154.379 53.3363 154.213ZM32.4133 159.525C32.6705 162.015 33.0135 162.679 34.3855 162.679C36.3578 162.679 36.4435 163.758 34.6428 166.414C33.3565 168.406 32.842 168.489 24.953 168.489C13.5483 168.489 12.8623 168.24 12.8623 164.173C12.8623 160.853 12.8623 160.853 15.6063 161.351C17.064 161.6 18.3503 161.932 18.436 162.098C18.6075 162.181 19.2935 163.343 20.0653 164.754L21.523 167.244L21.0085 164.588C20.6655 163.094 20.6655 161.102 21.0085 160.189C21.7803 157.865 25.5533 156.039 29.1548 156.288C31.9845 156.454 32.156 156.62 32.4133 159.525ZM210.945 157.284C212.317 157.948 213.86 159.276 214.375 160.106C215.318 161.932 215.49 166.248 214.718 169.07C214.203 170.979 214.032 170.979 198.854 170.979H183.505V168.572C183.505 167.161 183.848 165.916 184.277 165.667C184.62 165.418 184.791 164.256 184.534 163.094C184.191 161.185 184.362 161.019 187.449 161.019C189.593 161.019 191.308 161.6 192.594 162.762C194.824 164.837 196.367 164.256 196.367 161.434C196.367 158.197 199.54 156.039 204.256 156.039C206.572 156.039 209.573 156.62 210.945 157.284ZM127.339 158.944C129.825 161.268 130.083 163.924 128.025 165.086C126.824 165.75 127.339 165.916 130.511 165.999C135.313 165.999 138.143 167.991 136.085 169.9C135.142 170.896 132.226 170.979 119.707 170.481L104.529 169.9L103.243 167.576C102.643 166.331 102.042 164.837 102.042 164.339C102.042 162.928 105.301 163.426 106.244 164.92C107.016 166.248 107.102 166.165 107.187 164.422C107.187 162.513 107.273 162.513 108.731 163.758C110.274 165.086 110.274 165.003 109.931 162.679C109.245 157.865 113.619 155.873 116.277 159.857C117.649 161.849 117.82 161.849 118.592 160.438C120.736 156.454 124.252 155.873 127.339 158.944ZM228.095 164.256C228.524 165.169 228.952 166.746 228.952 167.742C228.952 169.485 229.038 169.485 230.667 168.074C231.525 167.327 232.897 166.829 233.669 167.078C234.612 167.493 234.955 166.995 235.041 164.92L235.126 162.264L235.812 164.92C236.155 166.414 236.241 168.489 236.07 169.568C235.641 171.477 235.641 171.477 225.694 171.145C220.206 170.979 215.575 170.647 215.404 170.564C214.718 169.983 217.891 165.169 219.691 164.007C222.435 162.098 226.98 162.264 228.095 164.256ZM99.4698 180.773C101.528 181.52 101.528 181.52 98.6123 182.433C96.983 182.931 89.8658 184.757 82.7485 186.417C75.717 188.077 66.7133 190.65 62.8545 192.144L55.7373 194.8V189.405C55.7373 184.591 55.9945 183.678 58.1383 181.52L60.4535 179.113L78.8898 179.528C89.0083 179.777 98.2693 180.358 99.4698 180.773Z" fill="white"/>
<path id="Vector_2" d="M0 168.075C0 170.565 0.343 171.81 1.11475 171.81C1.715 171.81 3.17275 172.889 4.2875 174.134C5.74525 175.711 8.0605 176.79 11.5762 177.62L16.7212 178.865L8.4035 179.114C3.773 179.197 0 179.612 0 180.027C0 180.442 5.3165 180.525 11.8335 180.359C18.6935 180.11 24.5245 180.276 25.725 180.774C27.8687 181.604 28.0402 182.185 30.184 196.793L32.4135 212.065L30.9557 223.27C29.841 232.151 29.3265 234.475 28.2975 234.309C27.6115 234.226 21.8662 233.313 15.5207 232.317L4.03025 230.408L2.058 232.898C0.5145 234.641 0 236.384 0 239.206C0 243.024 0.08575 243.19 2.401 243.19C4.116 243.19 5.145 242.526 6.3455 240.7C7.28875 239.04 8.31775 238.293 9.261 238.542C10.0327 238.791 12.4337 239.372 14.5775 239.953C16.7212 240.534 18.7792 241.198 19.1222 241.53C19.4652 241.862 18.0932 243.937 15.9495 246.261L12.0907 250.411L16.7212 250.992C20.237 251.407 25.6392 250.743 38.2445 248.585C47.5055 246.925 55.6517 245.846 56.4235 246.012C57.281 246.261 62.6832 245.182 68.6 243.688L79.3187 240.949L84.5495 244.518C89.6945 248.004 89.866 248.087 97.9265 248.336C102.471 248.502 105.987 248.336 105.815 248.087C105.644 247.838 102.643 246.593 99.0412 245.265C92.7815 243.107 89.866 241.281 93.639 242.028C94.7537 242.277 93.7247 241.696 91.4095 240.783C89.0942 239.87 86.436 238.459 85.407 237.546C82.663 235.305 80.605 233.811 80.605 234.226C80.605 235.056 92.61 244.02 95.2682 245.182L98.1837 246.344L94.2392 246.427C90.895 246.51 89.6087 246.012 85.064 242.692L79.8332 238.957L69.0287 241.447C63.0262 242.858 56.3377 244.02 54.194 244.02C51.9645 244.02 44.59 244.933 37.73 246.095C30.87 247.257 23.5812 248.17 21.5232 248.17H17.7502L19.6367 246.178C21.0945 244.684 22.981 243.937 26.2395 243.522C28.812 243.273 31.0415 242.692 31.2987 242.36C31.4702 242.028 26.6682 240.368 20.58 238.625C14.4917 236.799 9.604 235.222 9.7755 235.139C9.947 234.973 14.9205 235.637 20.923 236.633C26.8397 237.712 31.899 238.293 32.1562 238.044C32.4135 237.878 33.3567 231.653 34.3 224.432L36.015 211.152L33.4425 195.548C31.9847 186.916 30.87 179.612 30.87 179.28C30.87 179.031 25.5535 177.537 19.1222 176.043L7.28875 173.304L3.9445 168.822C2.058 166.332 0.42875 164.34 0.25725 164.34C0.08575 164.34 0 166 0 168.075Z" fill="white"/>
<path id="Vector_3" d="M138.486 242.692C172.615 254.063 193.624 263.94 203.914 273.402C211.888 280.623 212.06 286.018 204.771 292.741C194.481 302.12 170.214 310.337 122.194 320.712C114.648 322.372 102.471 325.526 95.1825 327.767L81.8912 331.917L87.2935 332C91.0665 332 95.6112 331.17 102.643 329.095C108.131 327.435 120.564 324.447 130.254 322.372C169.871 313.823 194.567 304.942 205.457 295.231L210.088 291.164V295.729C210.088 299.796 209.745 300.626 206.743 303.946C197.311 314.321 177.846 323.451 152.206 329.593C143.202 331.751 142.945 331.834 147.233 331.917C156.322 332.083 184.191 321.708 197.139 313.408C204.943 308.345 211.803 301.29 211.803 298.219C211.803 294.069 213.089 293.405 214.718 296.559C220.463 308.345 208.201 319.55 179.046 329.095L170.214 332H175.616C188.479 332 210.859 319.716 216.347 309.59C219.349 303.946 219.091 299.298 215.318 294.152C213.432 291.496 212.832 289.587 212.489 285.354C212.231 281.038 211.631 279.129 209.659 276.307C202.542 266.43 179.561 255.308 138.572 241.862C129.654 238.957 121.936 236.55 121.422 236.633C120.907 236.633 128.625 239.372 138.486 242.692Z" fill="white"/>
<path id="Vector_4" d="M123.48 250.162C138.315 255.225 146.633 262.197 146.633 269.667C146.633 290.417 94.7538 308.677 17.5788 315.151C1.372 316.479 0 316.728 0 318.222C0 319.716 0.5145 319.716 8.7465 319.218C56.3378 316.147 97.8408 307.515 122.194 295.729C139.515 287.263 147.49 279.212 147.49 270.165C147.49 265.434 146.032 262.612 141.573 258.711C136.771 254.478 122.623 248.004 118.85 248.253C118.335 248.253 120.393 249.166 123.48 250.162Z" fill="white"/>
</g>
</g>
<defs>
<clipPath id="clip0">
<rect width="343" height="332" fill="white"/>
</clipPath>
</defs>
</svg>
